# xmcd
# 
# Track frame offsets:
#     150
#     15080
#     29103
#     44885
#     62570
#     80715
#     97812
#     115668
#     132955
#     148544
#     164244
# 
# Disc length: 2440
# 
# Revision: 0
# Processed by: cddbd v1.5.2PL0 Copyright (c) Steve Scherf et al.
# Submitted via: fre:ac v1.0.31
# 
DISCID=9609860b
DTITLE=Elysion - Someplace Better
DYEAR=0
DGENRE=Rock/Pop
TTITLE0=Made of Lies
TTITLE1=Someplace Better
TTITLE2=Fairytale
TTITLE3=The Promise
TTITLE4=Our Fate
TTITLE5=Awake
TTITLE6=What Lies Beneath
TTITLE7=Transparent
TTITLE8=Breakfree
TTITLE9=In Despair
TTITLE10=Changing
EXTD=
EXTT0=
EXTT1=
EXTT2=
EXTT3=
EXTT4=
EXTT5=
EXTT6=
EXTT7=
EXTT8=
EXTT9=
EXTT10=
PLAYORDER=
